<svg width="30" height="30" viewBox="0 0 30 30" fill="none" xmlns="http://www.w3.org/2000/svg">
<g id="Icon">
<path id="path4" d="M26.0533 21.4312C25.6374 22.3919 25.1451 23.2763 24.5748 24.0894C23.7973 25.1979 23.1608 25.9651 22.6702 26.3912C21.9097 27.0906 21.095 27.4487 20.2225 27.4691C19.5961 27.4691 18.8407 27.2909 17.9614 26.9293C17.0792 26.5694 16.2685 26.3912 15.5272 26.3912C14.7498 26.3912 13.916 26.5694 13.0241 26.9293C12.1309 27.2909 11.4114 27.4793 10.8612 27.4979C10.0245 27.5336 9.19055 27.1652 8.35811 26.3912C7.8268 25.9278 7.16224 25.1334 6.36612 24.0079C5.51195 22.8061 4.80971 21.4125 4.25955 19.8236C3.67036 18.1075 3.375 16.4457 3.375 14.8368C3.375 12.9938 3.77323 11.4043 4.57087 10.0723C5.19775 9.00238 6.03172 8.15839 7.0755 7.53881C8.11928 6.91923 9.24708 6.6035 10.4616 6.5833C11.1262 6.5833 11.9977 6.78887 13.0807 7.19287C14.1606 7.59823 14.854 7.80379 15.158 7.80379C15.3853 7.80379 16.1556 7.56343 17.4615 7.08423C18.6964 6.63983 19.7387 6.45582 20.5925 6.52831C22.9062 6.71503 24.6444 7.62708 25.8004 9.27024C23.7311 10.524 22.7076 12.28 22.7279 14.5328C22.7466 16.2875 23.3832 17.7476 24.6342 18.907C25.2011 19.4451 25.8343 19.861 26.5388 20.1563C26.386 20.5994 26.2247 21.0238 26.0533 21.4312ZM20.747 0.550462C20.747 1.92578 20.2445 3.2099 19.243 4.39848C18.0344 5.81146 16.5725 6.62795 14.9873 6.49911C14.9671 6.33411 14.9554 6.16046 14.9554 5.97798C14.9554 4.65768 15.5301 3.2447 16.5508 2.0894C17.0604 1.50444 17.7085 1.01807 18.4944 0.630073C19.2787 0.247868 20.0205 0.0365009 20.7181 0.000305176C20.7385 0.184163 20.747 0.368033 20.747 0.550444V0.550462Z" fill="white"/>
</g>
</svg>
