<svg width="66" height="66" viewBox="0 0 66 66" fill="none" xmlns="http://www.w3.org/2000/svg">
<g id="Logo" opacity="0.5">
<g id="Oval" filter="url(#filter0_d_1608_18175)">
<path d="M59 33C59 47.3594 47.3594 59 33 59C18.6406 59 7 47.3594 7 33C7 18.6406 18.6406 7 33 7C47.3594 7 59 18.6406 59 33ZM19.126 33C19.126 40.6624 25.3376 46.874 33 46.874C40.6624 46.874 46.874 40.6624 46.874 33C46.874 25.3376 40.6624 19.126 33 19.126C25.3376 19.126 19.126 25.3376 19.126 33Z" stroke="url(#paint0_linear_1608_18175)" stroke-width="5" stroke-linecap="square"/>
</g>
</g>
<defs>
<filter id="filter0_d_1608_18175" x="0.5" y="0.5" width="65" height="65" filterUnits="userSpaceOnUse" color-interpolation-filters="sRGB">
<feFlood flood-opacity="0" result="BackgroundImageFix"/>
<feColorMatrix in="SourceAlpha" type="matrix" values="0 0 0 0 0 0 0 0 0 0 0 0 0 0 0 0 0 0 127 0" result="hardAlpha"/>
<feOffset/>
<feGaussianBlur stdDeviation="2"/>
<feColorMatrix type="matrix" values="0 0 0 0 0.992157 0 0 0 0 0.847059 0 0 0 0 0.278431 0 0 0 1 0"/>
<feBlend mode="normal" in2="BackgroundImageFix" result="effect1_dropShadow_1608_18175"/>
<feBlend mode="normal" in="SourceGraphic" in2="effect1_dropShadow_1608_18175" result="shape"/>
</filter>
<linearGradient id="paint0_linear_1608_18175" x1="40.4081" y1="-0.664372" x2="-3.30817" y2="30.3207" gradientUnits="userSpaceOnUse">
<stop stop-color="#F1F5F9" stop-opacity="0.01"/>
<stop offset="1" stop-color="#F1F5F9"/>
</linearGradient>
</defs>
</svg>
