<svg width="249" height="24" viewBox="0 0 249 24" fill="none" xmlns="http://www.w3.org/2000/svg">
<g id="Frame 1000003468">
<path id="Vector" d="M33.2486 12.5215C29.6806 16.0246 25.8089 19.8259 21.6336 23.9998C20.6467 23.1054 19.6598 22.1364 18.0656 20.7203C21.33 18.037 24.3666 15.5029 27.9346 12.5215C24.2147 9.16747 21.1781 6.48425 17.686 3.35381C19.4321 2.08673 20.5708 1.34139 21.4059 0.745117C25.2016 4.54636 29.1492 8.49667 33.2486 12.5215Z" fill="#E3E8EF"/>
<path id="Vector_2" d="M0 11.9255C3.71983 8.19876 7.5915 4.32298 11.9187 0C12.8296 0.968945 13.8165 2.01242 15.183 3.35404C11.8427 6.18634 8.88205 8.79503 5.23813 11.8509C8.95796 14.9068 11.9946 17.5155 15.3348 20.2733C13.8165 21.8385 12.8296 22.882 11.9946 23.7764C7.89516 19.6025 3.94758 15.6522 0.0759196 11.7764L0 11.9255Z" fill="#E3E8EF"/>
<g id="Group 97">
<path id="Vector_3" d="M209.227 6.03743C210.821 6.03743 212.264 6.03743 213.782 6.03743C217.274 5.88836 220.614 5.59021 219.476 10.9567C219.02 12.8946 220.539 16.4722 219.779 16.8449C217.806 17.9629 215.073 17.6647 212.643 18.0374C209.607 18.4846 208.164 17.4412 208.544 14.1617C208.772 11.8511 208.62 9.466 208.696 7.0809C208.696 6.8573 208.924 6.6337 209.227 5.96289V6.03743ZM218.261 15.5033C218.413 14.9815 218.565 14.5343 218.641 14.0126C216.363 13.4908 214.01 12.9691 211.732 12.4474C211.732 12.2238 211.656 11.9256 211.581 11.702C213.554 10.9567 215.528 10.2859 217.502 9.54052C217.35 9.16785 217.198 8.79518 217.122 8.34797H211.125V15.5033H218.261Z" fill="#E3E8EF"/>
<path id="Vector_4" d="M176.65 6.35648V17.8347C176.346 17.9093 176.042 18.0583 175.814 18.1329C175.207 17.1639 174.676 16.195 174.144 15.2261C170.88 14.8534 167.464 13.959 165.718 18.6546C162.833 7.32543 167.084 4.8658 176.725 6.35648H176.65ZM174.448 8.59251C168.906 7.62357 167.236 8.59251 167.464 12.6919H174.448V8.59251Z" fill="#E3E8EF"/>
<path id="Vector_5" d="M142.716 7.4764C140.97 7.62546 139.148 7.55093 137.402 7.84907C136.263 8.07267 135.2 8.81801 134.138 9.33975C135.2 9.71242 136.263 10.2342 137.326 10.4578C138.313 10.6814 139.604 10.1596 140.287 10.6814C141.653 11.6503 143.551 13.141 143.551 14.3336C143.551 15.5261 141.501 17.3895 140.059 17.6876C137.402 18.1348 134.593 17.6876 131.86 17.5385C131.86 17.0168 131.86 16.4205 131.86 15.8988C135.049 15.6751 138.237 15.4516 141.425 15.2279C141.425 14.7807 141.577 14.4081 141.577 13.9609C140.818 13.5882 140.135 13.0665 139.3 12.9174C137.782 12.7683 136.111 13.2155 134.821 12.6938C133.53 12.1721 132.088 10.8304 131.784 9.56334C131.557 8.51987 132.847 6.35837 133.758 6.2093C136.567 5.7621 139.528 6.06025 142.412 6.06025C142.412 6.58199 142.412 7.02919 142.488 7.55093L142.716 7.4764Z" fill="#E3E8EF"/>
<path id="Vector_6" d="M151.142 15.9132C154.33 15.6896 157.595 15.466 160.783 15.2424C160.783 14.7207 160.783 14.1244 160.859 13.6026C159.492 13.379 158.05 13.23 156.684 12.9318C155.089 12.6337 153.343 12.5592 152.129 11.8138C151.37 11.3666 150.914 9.5778 151.218 8.53432C151.445 7.56538 152.736 6.22375 153.647 6.14922C156.304 5.85108 159.037 6.00016 161.77 6.00016C161.77 6.5219 161.846 7.04363 161.922 7.56536C160.176 7.71443 158.43 7.6399 156.76 8.01257C155.621 8.23618 154.558 8.98152 153.495 9.50326C154.558 9.87593 155.621 10.3231 156.684 10.6213C157.367 10.7703 158.202 10.6213 158.961 10.6213C161.314 10.8449 163.288 11.7393 163.136 14.4225C162.985 17.0312 161.087 17.9256 158.657 17.9256C156.76 17.9256 154.862 18.0002 152.964 17.9256C152.281 17.9256 151.597 17.2548 150.914 16.8821C150.99 16.584 151.142 16.2859 151.218 15.9877L151.142 15.9132Z" fill="#E3E8EF"/>
<path id="Vector_7" d="M194.266 5.99602C196.847 5.99602 198.972 5.92148 201.098 5.99602C204.894 6.21962 206.412 7.78482 206.488 11.6606C206.564 15.5364 204.742 17.6234 201.174 17.9215C196.568 18.319 194.266 16.2569 194.266 11.7351C194.266 10.0209 194.266 8.30658 194.266 5.99602ZM196.695 16.4308C199.504 15.5364 201.933 15.1637 203.679 13.8966C204.438 13.3749 204.135 9.8718 203.3 9.35006C201.553 8.23204 199.124 8.23203 196.619 7.71029V16.4308H196.695Z" fill="#E3E8EF"/>
<path id="Vector_8" d="M61.7969 15.8619C65.3649 15.6383 68.5533 15.4147 71.7417 15.2656C71.7417 14.7439 71.7417 14.2222 71.8177 13.7004C70.603 13.4768 69.3125 13.1787 68.0978 12.9551C66.6554 12.7315 64.8335 12.9551 63.7707 12.2843C62.7838 11.6135 62.1005 9.82465 62.2524 8.6321C62.4042 7.66315 63.9225 6.32155 64.9094 6.17248C67.4905 5.79981 70.0716 6.02341 73.0323 6.91782C72.425 7.29049 71.8936 7.88676 71.2862 7.9613C70.1475 8.11036 69.0088 7.88677 67.8701 8.11037C66.6554 8.33398 65.5167 8.93024 64.378 9.37744C65.5167 9.82465 66.5795 10.4209 67.7942 10.7191C69.0847 11.0172 70.6789 10.7191 71.8177 11.3153C72.8046 11.8371 73.9433 13.2532 73.9433 14.2967C73.9433 15.3402 72.8046 17.2781 71.9695 17.4271C68.9329 17.8744 65.8204 17.7253 62.7079 17.6507C62.4801 17.6507 62.3283 16.9054 61.7969 16.011V15.8619Z" fill="#E3E8EF"/>
<path id="Vector_9" d="M235.485 12.2262C235.485 16.6982 233.663 18.338 228.88 18.338C224.098 18.338 222.352 16.6982 222.352 12.2262C222.352 7.53052 224.098 5.89077 229.108 5.96531C233.891 5.96531 235.485 7.67959 235.485 12.2262ZM228.804 15.9529C231.765 16.3256 233.283 15.2821 233.283 12.0771C233.283 8.94668 231.841 7.9032 228.88 7.9032C226.223 7.9032 224.629 8.79762 224.629 11.779C224.629 14.7604 225.616 16.3256 228.804 15.8784V15.9529Z" fill="#E3E8EF"/>
<path id="Vector_10" d="M189.409 6.48464C192.066 8.19893 192.369 14.1617 190.699 18.8573C188.042 15.6524 185.689 12.7455 183.26 9.83868L181.893 10.8076C181.665 13.2672 181.514 15.6524 181.286 18.112C180.754 18.112 180.299 18.112 179.768 18.112C178.932 14.3107 179.312 10.3604 180.375 5.96289C182.728 8.94426 185.082 11.8511 187.359 14.8325L189.333 13.5654V6.55918L189.409 6.48464Z" fill="#E3E8EF"/>
<path id="Vector_11" d="M249.004 7.15544C247.561 8.86973 246.195 10.584 244.601 12.4474C246.043 14.2362 247.561 16.025 249.004 17.8138C248.776 18.112 248.472 18.4846 248.244 18.7828C246.498 17.5157 244.752 16.2486 242.93 14.907C241.26 16.1741 239.438 17.5157 237.616 18.8573C237.313 18.5592 237.085 18.261 236.781 17.9629C238.224 16.1741 239.666 14.3853 241.26 12.3728C239.742 10.584 238.3 8.79519 236.857 7.00636C237.161 6.70823 237.389 6.4101 237.692 6.03743C239.362 7.30451 241.108 8.57158 243.006 9.98773C244.525 8.79519 246.347 7.37904 248.093 5.96289L249.004 7.00636V7.15544Z" fill="#E3E8EF"/>
<path id="Vector_12" d="M77.2811 6.03743C77.5088 7.15544 77.8884 8.27346 77.9643 9.39147C78.1162 15.3542 79.103 16.1741 85.5558 15.2797V6.55916C85.8595 6.41009 86.0872 6.1865 86.3909 6.03743C86.9223 6.6337 87.8333 7.15543 87.9092 7.75171C88.061 10.4349 88.061 13.1927 87.9092 15.8759C87.9092 16.4722 87.4537 17.3666 86.9223 17.6647C82.8229 20.1244 75.9905 16.6958 75.7628 12.0002C75.611 10.0623 75.7628 8.12437 75.7628 6.18648L77.2811 5.96289V6.03743Z" fill="#E3E8EF"/>
<path id="Vector_13" d="M125.412 6.55918C128.221 9.01881 126.702 12.8946 121.844 14.4598C121.616 15.6523 121.312 16.8449 121.009 18.261C118.731 15.9505 116.302 14.0126 114.784 11.6275C113.949 10.3604 114.632 8.12438 115.315 5.96289C116.226 9.83867 117.213 13.5654 122.072 11.6275C123.59 11.0312 124.273 8.42251 125.412 6.63369V6.55918Z" fill="#E3E8EF"/>
<path id="Vector_14" d="M92.4623 6.11195V15.6523H101.572C101.572 16.0995 101.572 16.4722 101.648 16.9194C98.991 19.0064 95.5748 17.5902 92.6141 17.8138C91.9309 17.8138 90.4885 16.6958 90.4885 16.025C90.4126 12.671 89.8812 9.16786 90.7922 5.96289C91.3236 5.96289 91.8549 6.03741 92.4623 6.11195Z" fill="#E3E8EF"/>
<path id="Vector_15" d="M115.09 15.6523C113.344 17.7393 106.587 18.7828 104.613 17.7393C103.854 17.3666 103.399 16.025 103.323 15.0561C102.867 7.9753 103.095 7.00637 105.524 5.96289V15.6523H115.166H115.09Z" fill="#E3E8EF"/>
</g>
<path id="Vector_16" d="M45.4717 23.4781V0.745117H45.9272V23.4781C45.7753 23.4781 45.6235 23.4781 45.4717 23.4781Z" fill="#E3E8EF"/>
</g>
</svg>
