<svg width="189" height="14" viewBox="0 0 189 14" fill="none" xmlns="http://www.w3.org/2000/svg">
<path d="M148.227 1.03743C149.821 1.03743 151.264 1.03743 152.782 1.03743C156.274 0.888361 159.614 0.590206 158.476 5.95667C158.02 7.89456 159.539 11.4722 158.779 11.8449C156.806 12.9629 154.073 12.6647 151.643 13.0374C148.607 13.4846 147.164 12.4412 147.544 9.16165C147.772 6.85109 147.62 4.466 147.696 2.0809C147.696 1.8573 147.924 1.6337 148.227 0.962891V1.03743ZM157.261 10.5033C157.413 9.98152 157.565 9.53432 157.641 9.01258C155.363 8.49084 153.01 7.96909 150.732 7.44735C150.732 7.22375 150.656 6.92561 150.581 6.70201C152.554 5.95667 154.528 5.28587 156.502 4.54052C156.35 4.16785 156.198 3.79518 156.122 3.34797H150.125V10.5033H157.261Z" fill="#E3E8EF"/>
<path d="M115.65 1.35648V12.8347C115.346 12.9093 115.042 13.0583 114.814 13.1329C114.207 12.1639 113.676 11.195 113.144 10.2261C109.88 9.85338 106.464 8.95897 104.718 13.6546C101.833 2.32543 106.084 -0.1342 115.725 1.35648H115.65ZM113.448 3.59251C107.906 2.62357 106.236 3.59251 106.464 7.69189H113.448V3.59251Z" fill="#E3E8EF"/>
<path d="M81.7161 2.4764C79.97 2.62546 78.148 2.55093 76.402 2.84907C75.2633 3.07267 74.2005 3.81801 73.1377 4.33975C74.2005 4.71242 75.2633 5.23416 76.3261 5.45776C77.313 5.68137 78.6035 5.15962 79.2868 5.68136C80.6532 6.6503 82.5511 8.141 82.5511 9.33355C82.5511 10.5261 80.5014 12.3895 79.059 12.6876C76.402 13.1348 73.5932 12.6876 70.8602 12.5385C70.8602 12.0168 70.8602 11.4205 70.8602 10.8988C74.0486 10.6751 77.2371 10.4516 80.4255 10.2279C80.4255 9.78074 80.5773 9.40809 80.5773 8.96088C79.8182 8.58821 79.1349 8.06645 78.2999 7.91738C76.7816 7.76832 75.1115 8.21553 73.8209 7.69379C72.5303 7.17205 71.088 5.83043 70.7843 4.56334C70.5566 3.51987 71.8471 1.35837 72.7581 1.2093C75.5669 0.762099 78.5276 1.06025 81.4124 1.06025C81.4124 1.58199 81.4124 2.02919 81.4883 2.55093L81.7161 2.4764Z" fill="#E3E8EF"/>
<path d="M90.1418 10.9132C93.3303 10.6896 96.5946 10.466 99.783 10.2424C99.783 9.72066 99.783 9.12438 99.8589 8.60264C98.4925 8.37904 97.0501 8.22997 95.6836 7.93184C94.0894 7.6337 92.3433 7.55917 91.1287 6.81382C90.3696 6.36662 89.9141 4.5778 90.2177 3.53432C90.4455 2.56538 91.736 1.22375 92.647 1.14922C95.304 0.851082 98.037 1.00016 100.77 1.00016C100.77 1.5219 100.846 2.04363 100.922 2.56536C99.1757 2.71443 97.4297 2.6399 95.7595 3.01257C94.6208 3.23618 93.558 3.98152 92.4952 4.50326C93.558 4.87593 94.6208 5.32313 95.6836 5.62127C96.3668 5.77034 97.2019 5.62127 97.9611 5.62127C100.314 5.84487 102.288 6.73929 102.136 9.42252C101.985 12.0312 100.087 12.9256 97.6574 12.9256C95.7595 12.9256 93.8617 13.0002 91.9638 12.9256C91.2805 12.9256 90.5973 12.2548 89.9141 11.8821C89.99 11.584 90.1418 11.2859 90.2177 10.9877L90.1418 10.9132Z" fill="#E3E8EF"/>
<path d="M133.266 0.996017C135.847 0.996017 137.972 0.921483 140.098 0.996017C143.894 1.21962 145.412 2.78482 145.488 6.6606C145.564 10.5364 143.742 12.6234 140.174 12.9215C135.568 13.319 133.266 11.2569 133.266 6.73514C133.266 5.02085 133.266 3.30658 133.266 0.996017ZM135.695 11.4308C138.504 10.5364 140.933 10.1637 142.679 8.89662C143.438 8.37488 143.135 4.8718 142.3 4.35006C140.553 3.23204 138.124 3.23203 135.619 2.71029V11.4308H135.695Z" fill="#E3E8EF"/>
<path d="M0.796875 10.8619C4.36488 10.6383 7.55331 10.4147 10.7417 10.2656C10.7417 9.7439 10.7417 9.22218 10.8177 8.70044C9.60302 8.47684 8.31246 8.1787 7.09782 7.9551C5.65544 7.73149 3.83348 7.95508 2.77067 7.28427C1.78377 6.61346 1.10054 4.82465 1.25237 3.6321C1.4042 2.66315 2.9225 1.32155 3.90939 1.17248C6.4905 0.799808 9.07161 1.02341 12.0323 1.91782C11.425 2.29049 10.8936 2.88676 10.2862 2.9613C9.14752 3.11036 8.0088 2.88677 6.87007 3.11037C5.65543 3.33398 4.51672 3.93024 3.37799 4.37744C4.51672 4.82465 5.57953 5.42093 6.79417 5.71907C8.08472 6.01721 9.67894 5.71906 10.8177 6.31534C11.8046 6.83707 12.9433 8.25322 12.9433 9.2967C12.9433 10.3402 11.8046 12.2781 10.9695 12.4271C7.93289 12.8744 4.82038 12.7253 1.70786 12.6507C1.48012 12.6507 1.32828 11.9054 0.796875 11.011V10.8619Z" fill="#E3E8EF"/>
<path d="M174.485 7.22618C174.485 11.6982 172.663 13.338 167.88 13.338C163.098 13.338 161.352 11.6982 161.352 7.22618C161.352 2.53052 163.098 0.890773 168.108 0.965307C172.891 0.965307 174.485 2.67959 174.485 7.22618ZM167.804 10.9529C170.765 11.3256 172.283 10.2821 172.283 7.07712C172.283 3.94668 170.841 2.9032 167.88 2.9032C165.223 2.9032 163.629 3.79762 163.629 6.77899C163.629 9.76036 164.616 11.3256 167.804 10.8784V10.9529Z" fill="#E3E8EF"/>
<path d="M128.409 1.48464C131.066 3.19893 131.369 9.16167 129.699 13.8573C127.042 10.6524 124.689 7.74551 122.26 4.83868L120.893 5.80761C120.665 8.26724 120.514 10.6524 120.286 13.112C119.754 13.112 119.299 13.112 118.768 13.112C117.932 9.31074 118.312 5.36041 119.375 0.962891C121.728 3.94426 124.082 6.85111 126.359 9.83248L128.333 8.56539V1.55918L128.409 1.48464Z" fill="#E3E8EF"/>
<path d="M188.004 2.15544C186.561 3.86973 185.195 5.58402 183.601 7.44738C185.043 9.2362 186.561 11.025 188.004 12.8138C187.776 13.112 187.472 13.4846 187.244 13.7828C185.498 12.5157 183.752 11.2486 181.93 9.907C180.26 11.1741 178.438 12.5157 176.616 13.8573C176.313 13.5592 176.085 13.261 175.781 12.9629C177.224 11.1741 178.666 9.38526 180.26 7.37284C178.742 5.58402 177.3 3.79519 175.857 2.00636C176.161 1.70823 176.389 1.4101 176.692 1.03743C178.362 2.30451 180.108 3.57158 182.006 4.98773C183.525 3.79519 185.347 2.37904 187.093 0.962891L188.004 2.00636V2.15544Z" fill="#E3E8EF"/>
<path d="M16.2811 1.03743C16.5088 2.15544 16.8884 3.27346 16.9643 4.39147C17.1162 10.3542 18.103 11.1741 24.5558 10.2797V1.55916C24.8595 1.41009 25.0872 1.1865 25.3909 1.03743C25.9223 1.6337 26.8333 2.15543 26.9092 2.75171C27.061 5.43494 27.061 8.1927 26.9092 10.8759C26.9092 11.4722 26.4537 12.3666 25.9223 12.6647C21.8229 15.1244 14.9905 11.6958 14.7628 7.00017C14.611 5.06228 14.7628 3.12437 14.7628 1.18648L16.2811 0.962891V1.03743Z" fill="#E3E8EF"/>
<path d="M64.4118 1.55918C67.2206 4.01881 65.7023 7.89457 60.8438 9.45979C60.616 10.6523 60.3124 11.8449 60.0087 13.261C57.7313 10.9505 55.302 9.01259 53.7837 6.62749C52.9486 5.36041 53.6318 3.12438 54.3151 0.962891C55.2261 4.83867 56.213 8.56538 61.0715 6.62749C62.5898 6.03122 63.2731 3.42251 64.4118 1.63369V1.55918Z" fill="#E3E8EF"/>
<path d="M31.4623 1.11195V10.6523H40.5721C40.5721 11.0995 40.5721 11.4722 40.648 11.9194C37.991 14.0064 34.5748 12.5902 31.6141 12.8138C30.9309 12.8138 29.4885 11.6958 29.4885 11.025C29.4126 7.67097 28.8812 4.16786 29.7922 0.962891C30.3236 0.962891 30.8549 1.03741 31.4623 1.11195Z" fill="#E3E8EF"/>
<path d="M54.0897 10.6523C52.3436 12.7393 45.5872 13.7828 43.6134 12.7393C42.8542 12.3666 42.3988 11.025 42.3229 10.0561C41.8674 2.9753 42.0951 2.00637 44.5244 0.962891V10.6523H54.1656H54.0897Z" fill="#E3E8EF"/>
</svg>
